<?xml version="1.0" standalone="no"?>
<!DOCTYPE svg PUBLIC "-//W3C//DTD SVG 20010904//EN"
 "http://www.w3.org/TR/2001/REC-SVG-20010904/DTD/svg10.dtd">
<svg version="1.0" xmlns="http://www.w3.org/2000/svg"
 width="16.000000pt" height="16.000000pt" viewBox="0 0 16.000000 16.000000"
 preserveAspectRatio="xMidYMid meet">

<g transform="translate(0.000000,16.000000) scale(0.100000,-0.100000)"
fill="#000000" stroke="none">
<path d="M10 65 c0 -10 9 -15 27 -15 29 0 29 2 -4 19 -19 10 -23 9 -23 -4z"/>
<path d="M70 54 c0 -9 9 -18 20 -21 11 -3 17 -9 14 -14 -3 -5 0 -9 5 -9 6 0
11 5 11 10 0 6 7 10 15 10 8 0 15 9 15 20 0 17 -7 20 -40 20 -30 0 -40 -4 -40
-16z"/>
</g>
</svg>
